<?xml version="1.0" standalone="no"?>
<!DOCTYPE svg PUBLIC "-//W3C//DTD SVG 1.1//EN" "http://www.w3.org/Graphics/SVG/1.1/DTD/svg11.dtd">
<svg xmlns="http://www.w3.org/2000/svg" xmlns:xlink="http://www.w3.org/1999/xlink" xml:space="preserve" width="9317.080078125" height="2715.1201171875" version="1.1" style="shape-rendering:geometricPrecision; text-rendering:geometricPrecision; image-rendering:optimizeQuality; fill-rule:evenodd; clip-rule:evenodd" viewBox="0 0 9317.08 2715.12">
 <defs>
  <style type="text/css">
   <![CDATA[
    .fil2 {fill:#65442E}
    .fil0 {fill:#65442E;fill-rule:nonzero}
    .fil1 {fill:#B40808;fill-rule:nonzero}
   ]]>
  </style>
 </defs>
 <g id="Camada_x0020_1">
  <metadata id="CorelCorpID_0Corel-Layer"/>
  <g id="_2276544365216">
   <g>
    <path class="fil0" d="M3208.65 971.37c-375.2,0 -659.27,278.71 -659.27,646.76 0,369.83 284.07,648.55 659.27,648.55 375.19,0 659.26,-278.73 659.26,-648.55 0,-368.05 -284.07,-646.76 -659.26,-646.76zm0 904.03c-148.3,0 -257.27,-105.4 -257.27,-257.27 0,-150.08 108.97,-257.27 257.27,-257.27 148.29,0 257.27,107.19 257.27,257.27 0,151.87 -108.99,257.27 -257.27,257.27zm1306.36 368.05l435.94 0 -264.42 -466.31c110.78,-66.1 176.88,-176.86 176.88,-335.89 0,-289.43 -184.02,-448.44 -528.85,-448.44l-528.83 0 0 1250.64 401.99 0 0 -385.91 112.55 0 194.74 385.91zm-307.29 -898.67l126.84 0c82.18,0 123.28,30.37 123.28,96.47 0,66.12 -41.09,94.7 -123.28,94.7l-126.84 0 0 -191.17zm1440.37 898.67l432.36 0 -418.07 -1250.64 -489.53 0 -418.07 1250.64 432.36 0 53.6 -192.96 353.74 0 53.6 192.96zm-330.53 -471.67l100.06 -362.67 100.04 362.67 -200.1 0zm1217.04 103.63c-148.3,0 -257.27,-105.4 -257.27,-257.27 0,-150.08 108.97,-257.27 257.27,-257.27 87.54,0 160.8,35.73 205.46,96.47l334.09 -219.75c-117.91,-162.59 -310.88,-266.21 -539.55,-266.21 -375.2,0 -659.27,278.71 -659.27,646.76 0,330.53 226.9,587.8 543.14,637.83l-55.38 114.33 60.74 80.41c16.08,-7.15 30.37,-8.93 44.66,-8.93 21.44,0 42.88,8.93 42.88,35.73 0,25.01 -16.08,41.09 -51.81,41.09 -41.09,0 -76.82,-19.65 -96.47,-33.95l-91.11 157.23c42.87,32.16 134,73.25 239.4,73.25 125.07,0 251.91,-57.17 251.91,-210.83 0,-134 -114.33,-187.59 -212.6,-191.15l23.22 -48.24c210.82,-10.72 389.49,-112.55 500.25,-266.21l-334.09 -219.75c-44.66,60.74 -117.91,96.47 -205.46,96.47zm1236.69 368.05l432.36 0 -418.07 -1250.64 -489.53 0 -418.07 1250.64 432.36 0 53.6 -192.96 353.74 0 53.6 192.96zm-330.53 -471.67l100.06 -362.67 100.04 362.67 -200.1 0zm205.46 -1172.02c-1.78,14.3 -5.36,55.4 -50.02,55.4 -55.38,0 -100.06,-55.4 -184.02,-55.4 -139.36,0 -184.03,116.14 -198.32,250.13l223.33 39.3c1.78,-14.29 10.72,-55.38 51.81,-55.38 41.09,0 107.19,55.38 200.1,55.38 105.42,0 162.58,-80.39 180.45,-250.12l-223.33 -39.31zm1011.58 371.62c-375.2,0 -659.27,278.71 -659.27,646.76 0,369.83 284.07,648.55 659.27,648.55 375.19,0 659.26,-278.73 659.26,-648.55 0,-368.05 -284.07,-646.76 -659.26,-646.76zm0 904.03c-148.3,0 -257.27,-105.4 -257.27,-257.27 0,-150.08 108.97,-257.27 257.27,-257.27 148.29,0 257.27,107.19 257.27,257.27 0,151.87 -108.99,257.27 -257.27,257.27z"/>
    <path class="fil1" d="M2692.9 709.44c-20.24,3.31 -36.49,4.64 -49.42,4.31 23.22,-109.46 343.27,-345.93 476.93,-345.93 14.59,0 26.86,2.98 36.48,8.96 28.54,30.51 40.81,70.32 40.81,116.08 0,235.82 -320.06,641.11 -360.19,822.54 -2.98,13.26 -4.31,24.54 -4.31,34.83 0,64.01 52.4,72.62 80.26,72.62 10.29,0 17.26,-0.99 17.26,-0.99 0.66,-4.31 141.62,-317.74 311.43,-525.03 44.43,-54.39 156.21,-176.43 247.75,-176.43 17.9,0 34.81,4.63 50.74,15.25 32.84,22.56 65.67,74.96 97.52,167.49 19.89,57.7 48.42,83.92 83.57,83.92 9.29,0 19.23,-1.99 29.53,-5.65 129.68,-44.78 419.55,-705.78 559.19,-875.27 -48.1,250.08 -157.54,550.9 -234.17,807.62 -53.72,179.76 -136.3,463.33 -136.3,588.7 0,37.48 21.56,107.14 66.33,107.14 1.99,0 3.97,-0.34 5.96,-0.34 13.6,-1.98 13.27,-16.58 -0.66,-33.17 -1.99,-2.32 -2.65,-8.94 -2.65,-18.56 0,-34.5 9.62,-104.81 11.61,-116.75 41.78,-243.44 134,-517.74 206.62,-756.2 33.51,-109.77 154.23,-473.28 154.23,-602.96 0,-16.93 -1.99,-29.85 -6.64,-37.81 -16.58,-28.54 -35.16,-43.79 -55.4,-43.79 -8.61,0 -17.24,2.65 -26.53,8.28 -156.54,91.87 -434.15,830.83 -590.69,911.43 -39.47,-111.44 -90.55,-182.41 -148.26,-221.88 -36.16,-24.54 -71.98,-35.16 -106.79,-35.16 -116.75,0 -221.55,118.07 -291.87,208.63 58.38,-120.06 103.48,-240.46 103.48,-342.95 0,-63.68 -17.59,-120.39 -60.37,-165.5 -16.58,-17.92 -37.15,-32.18 -60.03,-41.13 -15.59,-6.29 -33.17,-8.94 -52.74,-8.94 -176.45,0 -488.87,233.49 -511.76,359.52 -0.99,4.31 -1.32,8.3 -1.32,12.6 0,22.23 11.61,41.79 32.84,59.71 25.86,23.55 54.72,31.17 87.56,31.17 16.25,0 33.17,-1.66 51.4,-4.97 6.64,-1 9.29,-4.64 9.29,-9.95 0,-17.26 -32.49,-50.09 -56.71,-50.09 -1.32,0 -2.65,0 -3.97,0.34l0 -1.66zm1694.48 274.61c0.67,-0.33 214.59,-79.26 263.02,-163.84 6.64,-11.94 9.95,-24.21 9.95,-36.15 0,-48.43 -50.08,-93.53 -97.83,-93.53 -1.33,0 -2.67,0 -3.98,0.33 -106.46,5.63 -250.75,179.76 -250.75,308.45 0,66 38.15,119.73 138.31,133.32 8.3,1 16.91,1.66 25.54,1.66 184.73,0 458.36,-240.13 459.03,-240.79 2.98,-2.32 4.3,-5.63 4.3,-9.95 0,-20.24 -31.5,-55.07 -50.74,-55.07 -3.31,0 -5.98,1 -8.3,3 -85.57,74.95 -309.44,243.11 -445.09,243.11 -13.93,0 -27.2,-1.66 -39.14,-5.65 -14.59,-4.97 -20.22,-22.87 -20.22,-41.12 0,-19.91 6.62,-40.46 15.91,-43.79zm54.06 -107.45c41.79,-54.06 102.82,-109.13 148.59,-122.39 -11.61,45.76 -92.86,94.19 -148.59,122.39zm501.16 -182.08c-0.66,0.99 -164.17,324.03 -164.17,388.04 0,23.88 29.18,44.12 46.75,50.41 1,0.34 1.99,0.67 3,0.67 53.06,0 327.01,-342.28 425.19,-412.92 -16.91,100.49 -90.21,268.65 -90.54,269.31 -0.67,1.32 -1,3.31 -1,4.97 0,19.56 36.16,49.09 57.39,49.09 4.63,0 8.61,-1.33 11.27,-4.64 12.28,-13.27 137.65,-148.59 209.61,-175.12 1.99,33.5 -9.95,69.31 -9.95,103.47 0,21.57 4.64,42.45 20.57,61.03 16.91,20.24 41.45,35.16 68.32,40.13 4.97,1 10.28,1.66 15.91,1.66 94.54,0 251.08,-135.31 309.13,-179.1 3.31,-2.65 4.64,-6.31 4.64,-10.61 0,-19.91 -30.51,-55.07 -50.09,-55.07 -2.98,0 -5.63,1 -7.62,2.65 -68.98,50.42 -212.93,177.78 -293.19,182.43 2.32,-30.51 10.94,-63.68 10.94,-96.52 0,-25.54 -5.3,-50.75 -22.87,-74.3 -21.23,-28.85 -44.45,-40.13 -68.67,-40.13 -38.8,0 -79.92,28.87 -119.39,60.7 15.92,-49.75 29.18,-98.18 29.18,-134 0,-43.11 -33.5,-91.54 -74.62,-91.54 -5.65,0 -11.28,1 -16.93,3 -65,20.88 -267.98,254.39 -332.66,328.35 47.1,-103.81 106.81,-221.88 107.14,-222.56 0.99,-1.98 1.32,-3.97 1.32,-5.96 0,-19.56 -37.48,-49.42 -57.7,-49.42 -4.97,0 -8.96,1.99 -10.95,5.98zm1135.29 -235.49c1,-10.29 -9.62,-12.61 -24.21,-5.32 -14.26,7.64 -26.86,21.57 -27.86,31.85 -1.99,16.58 -6.97,34.83 -15.25,47.76 -3.33,4.97 -24.88,8.63 -36.49,27.86 -7.62,12.27 -3.64,20.9 8.96,18.9 55.05,-8.63 89.55,-69.66 94.85,-121.05zm-181.42 332.99c17.59,-23.22 75.62,-35.82 100.5,-35.82 6.31,0 10.61,0.66 11.61,2.32 4.64,8.94 6.64,19.89 6.64,32.16 0,39.14 -20.9,90.22 -39.14,123.06 -40.13,-8.63 -77.61,-29.2 -88.55,-67.99 11.6,-9.29 32.49,-11.94 32.49,-23.88 0,-6.31 -6.29,-15.26 -23.55,-29.85zm-80.59 6.97c-54.06,43.77 -118.73,127.36 -118.73,201.99 0,34.81 14.26,67.32 50.41,92.86 -1.66,2.98 32.84,24.54 83.59,24.54 57.04,0 134.66,-27.52 204.63,-141.95 8.3,0.66 17.26,1.33 26.54,1.33 73.3,0 165.83,-26.2 253.39,-97.52 2.65,-2.32 3.98,-5.63 3.98,-9.29 0,-18.9 -31.52,-50.08 -51.08,-50.08 -3.64,0 -6.64,1 -8.96,2.98 -64.01,52.41 -141.29,79.6 -193.02,89.55 10.94,-25.53 16.24,-51.4 16.24,-75.95 0,-39.8 -13.92,-76.28 -39.79,-101.49 -25.54,-24.87 -66.68,-37.48 -107.14,-37.48 -61.36,0 -120.72,29.2 -120.72,89.55 0,3.65 0,7.3 0.66,10.95zm36.49 80.26l0 0c23.55,29.51 57.04,56.05 97.83,74.63 -38.47,52.4 -101.82,110.78 -155.88,110.78 -9.95,0 -19.56,-1.99 -28.85,-6.31 -1,-3.33 -1,-11.28 0,-21.89 3.97,-52.41 51.41,-119.41 86.9,-157.21zm886.86 -45.78c-92.86,91.21 -305.46,350.58 -401.31,394.69 17.59,-91.54 194.37,-341.95 173.8,-396.34 -10.95,-29.53 -31.85,-46.11 -64.01,-48.1 -19.25,-1.32 -67.01,21.23 -90.22,27.53 22.89,-48.09 28.19,-84.91 23.22,-109.44 -8.61,-41.79 -59.04,-85.25 -103.48,-72.97 -73.3,20.22 -132.66,164.5 -37.81,229.18 53.4,36.81 121.07,28.19 184.75,8.96 -41.79,82.91 -189.06,308.78 -141.62,380.09 12.27,18.25 32.49,34.15 52.73,41.12 95.18,32.51 373.78,-317.73 456.04,-398.66 17.92,-17.9 -33.83,-73.96 -52.07,-56.05zm-482.24 -13.59c-6.64,-5.98 14.26,-62.03 15.92,-65.67 11.6,-25.87 25.2,-44.12 38.8,-55.05 -4.64,28.52 -20.9,68.98 -54.72,120.72zm546.26 -127.03c-32.18,65.67 -95.53,204.97 -95.53,304.47 0,27.19 4.64,51.41 15.92,70.32 15.58,25.54 43.11,47.1 73.63,55.05 8.63,2.32 17.24,3.65 26.2,3.65 110.45,0 256.38,-165.51 315.42,-238.14 1.99,-2.65 2.98,-6.31 2.98,-10.29 0,-21.56 -27.19,-57.04 -43.77,-57.04 -3,0 -5.65,1.33 -7.97,3.98 -52.4,65 -217.57,241.78 -308.78,241.78 -0.66,0 -1.65,0 -2.32,0 -2.65,-7.95 -3.64,-17.9 -3.64,-28.52 0,-84.58 67.65,-238.47 94.19,-296.17 0.66,-1.66 1.32,-3.65 1.32,-5.65 0,-19.89 -36.81,-49.75 -56.71,-49.75 -4.97,0 -8.96,1.99 -10.94,6.31zm107.12 -43.46l81.25 -129.34c1.33,-1.99 1.99,-4.31 1.99,-6.64 0,-19.23 -37.15,-49.42 -57.7,-49.42 -4.64,0 -8.63,1.65 -10.95,5.3l-80.59 129.35c-1.33,1.99 -1.99,4.31 -1.99,6.64 0,19.23 36.82,49.42 57.04,49.42 4.97,0 8.63,-1.66 10.95,-5.32zm449.4 131.01c6.31,-15.59 2.65,-31.17 -9.29,-45.43 -17.9,-21.9 -41.12,-32.51 -66.99,-32.51 -9.29,0 -19.23,1.66 -29.2,4.31 -82.91,23.55 -206.29,113.76 -206.29,213.59 0,10.62 1.66,21.56 4.31,32.18 12.27,44.45 52.73,80.92 95.18,85.9 2.65,0.34 5.65,0.67 8.3,0.67 61.36,0 151.9,-73.64 214.26,-132.33 9.95,63.68 46.75,103.81 106.46,118.4 9.62,2.32 19.56,3.31 29.84,3.31 95.2,0 221.55,-90.54 305.8,-143.28 3.65,-1.98 5.3,-5.3 5.3,-9.62 0,-18.23 -32.49,-49.75 -53.39,-49.75 -3,0 -5.98,0.67 -8.3,1.99 -28.52,17.92 -223.2,141.62 -290.54,141.62 -11.61,0 -19.56,-3.64 -22.22,-12.27 -3.98,-13.93 -6.31,-31.5 -6.31,-53.4 0,-20.55 1.99,-44.78 5.96,-73.3 1,-0.99 1.33,-2.32 1.33,-3.97 0,-14.6 -28.19,-51.74 -52.07,-51.74 -5.98,0 -11.61,2.32 -16.25,7.62 -0.66,0.66 -169.81,188.72 -255.38,196.34 -1.99,-7.3 -2.65,-14.59 -2.65,-21.89 0,-82.91 109.11,-166.83 190.7,-190.38 12.28,11.94 44.78,29.18 51.41,13.93zm1643.41 -588.71c12.94,16.58 18.9,39.47 18.9,65.01 0,81.93 -53.4,192.7 -100.16,230.17 -2.67,2.32 -3.65,5.32 -3.65,8.63 0,18.25 35.82,49.75 56.71,49.75 3.65,0 6.64,-0.99 9.29,-2.98 0,-0.33 95.53,-76.28 213.6,-99.83 6.29,-1.33 8.94,-4.97 8.94,-9.96 0,-17.24 -32.84,-50.41 -56.71,-50.41 -1.65,0 -3.31,0.33 -4.64,0.66 -26.86,5.32 -52.4,13.27 -75.95,22.23 13.93,-41.46 20.24,-78.27 20.24,-110.45 0,-124.05 -94.19,-179.1 -195.35,-179.1 -122.72,0 -256.38,79.27 -256.38,215.92 0,71.3 36.15,157.86 129.68,257.04 -245.76,62.35 -376.78,187.71 -430.5,317.07 -18.25,44.45 -27.53,96.52 -27.53,149.58 0,158.22 80.92,324.05 242.12,324.05 129.34,0 456.37,-221.88 456.37,-379.43 0,-12.6 -2.32,-24.88 -6.64,-36.49 -6.62,-17.24 -16.25,-32.82 -29.84,-46.42 63.35,-19.58 151.57,-43.13 216.91,-43.13 14.92,0 28.85,1 40.79,3.98 12.27,2.98 38.47,10.29 53.73,10.29 6.64,0 10.94,-1.33 10.94,-5.32 0,-5.63 -8.61,-15.91 -32.16,-33.5 -31.17,-23.55 -74.3,-33.17 -124.38,-33.17 -167.16,0 -408.94,107.12 -510.77,155.55 -3.97,1.99 -5.96,5.3 -5.96,9.29 0,17.92 34.48,50.08 56.71,50.08 2.65,0 5.3,-0.33 7.62,-1.32 29.2,-13.93 193.69,-93.53 239.47,-93.53 6.29,0 10.28,1.33 11.61,4.64 2.98,7.62 4.3,15.92 4.3,24.87 0,129.02 -314.42,353.9 -433.15,353.9 -94.87,0 -128.03,-109.13 -128.03,-214.59 0,-57.72 9.96,-114.43 25.21,-151.25 54.39,-128.68 187.4,-253.06 440.79,-311.43 16.25,-2.98 9.62,-23.22 -7.62,-39.8 -96.19,-92.2 -132,-169.81 -132,-232.49 0,-130.01 152.57,-196.69 241.45,-196.69 26.2,0 47.1,5.98 56.05,18.58z"/>
   </g>
   <g>
    <path class="fil2" d="M723.6 1853.99c2.94,-35.32 68.38,-146.62 90.42,-162.78 -4.82,20.62 -12.76,26.31 -22.17,44.13 -8.05,15.22 -12.46,27.03 -20.12,40.16 -15.64,26.76 -33.55,67.79 -48.13,78.49zm488.3 144.67c-20.08,5.36 -14.25,6.55 -30.24,17.99 -28.01,20.05 -60.94,47.51 -90.32,54.36 20.32,-30.36 94.97,-53.2 190.52,-195.3 46.77,-69.56 80.76,-185.42 80.76,-299.05l6.02 0c0,147.08 -26.04,255.74 -109.36,360.85 -23.63,29.81 -42.22,41.81 -47.38,61.14zm-488.3 156.74c0,-103.28 41.21,-187.54 96.39,-259.31 17.27,-22.46 33.72,-39.8 52.51,-62 72.39,-85.58 144.23,-168.06 211.94,-258.29 121.5,-161.94 114.27,-176.71 200.16,-330.35 34.8,-62.26 79.7,-176.28 103.65,-246.01 6.64,-19.32 5.26,-24.67 16.57,-37.68l-52.13 207.11c-57.76,198.94 -88.89,439.51 -164.77,594.8 -129.44,264.92 -317.86,301.9 -397.33,488.87 -7.25,17.07 -12.71,31.96 -17.99,48.32 -2.48,7.7 -4.54,15.81 -7.48,22.66 -5.15,12.04 -3.43,9.6 -11.38,18.76 -16.53,-70.87 -30.14,-97.2 -30.14,-186.88zm663.13 -892.22c2.74,-31.43 -21.67,0.09 57.82,-32.61 25,-10.29 47.27,-19.78 70.82,-31.66 125.48,-63.32 275.27,-170.86 275.27,-327.57l6.02 0c0,167 -111.48,238.75 -238.67,315.95l-171.26 75.89zm-174.83 735.48c53.75,-25.78 166.93,-2.39 222.31,18.83 19.52,7.48 32.97,18.23 54.99,23.36 -48.95,-73.08 -67.29,-113.21 -126.59,-114.53 0,-74.53 20.54,-194.71 65.27,-218.37 38.01,-20.09 160.98,49.91 223.36,43.33 68.48,-7.24 60.04,-75.96 103.08,-108.43 46.31,-34.94 15.02,-30 37.92,-64.57 29.5,-44.56 21.8,-5.23 28.59,-73.88 3.25,-32.95 38.02,-47.04 48.16,-90.5 -45.68,-68.21 -117.01,-41.69 -53.56,-258.53 30.9,-105.56 22.09,-94.31 47.53,-85.09 21.38,-91.81 -7.02,-189.61 -58.99,-266.54 -151.27,-223.99 -478.21,-320.35 -749.6,-222.54 -290.06,104.54 -382.98,367.27 -396.99,651.96 -5.19,105.29 -21.56,208.74 -30.26,313.37 9.8,-11.29 7.25,-7.3 12.37,-23.81 26.37,-85.47 54.79,-394.86 78.06,-428.33l18.09 198.94c9.45,-40.52 65.37,-179.3 83.63,-229.84l21.38 -56.99c7.21,-15.11 4.07,-8.33 9.52,-14.59 -3.77,45.35 -41.08,142.81 -54.22,192.95 -52.39,199.88 -118.34,349.87 -204.99,530.47 16.73,-6.05 8.44,-1.36 22.7,-19.49l235.66 -306.89c63.85,-84.53 118.69,-175.75 173.14,-266.95 17.08,-28.62 28.94,-68.8 50.77,-93.92 -5.29,63.64 -130.37,308.31 -163.92,360.57 -51.34,79.95 -111.62,148.3 -171.89,219.96l-174.8 211.02c-78.18,129.02 -73.51,260.11 17.87,388.44 20.98,29.47 34.38,24.61 43.4,59.09 5.76,22.03 5.15,43.84 21.61,62.78 0.82,0.95 2.09,2.18 2.97,3.08 11.48,12.01 20.93,22.55 38.94,27.36 -18.95,-28.29 -30.14,-42.91 -30.14,-90.42 21.43,5.72 14.23,3.61 27.19,21.04 10.82,14.55 8.53,10.19 15.97,26.23 7.94,17.18 14.59,42.98 23.89,60.5 19.28,36.29 74.52,49.45 107.78,67.05 -0.87,-39.1 -14.65,-19.71 -48.23,-42.2 6.05,-72.68 41.69,-132.81 86.05,-185.22 12.87,-15.21 21.64,-17.66 35.96,-30.36 25.05,-22.23 43.38,-41.15 74.21,-58.41 17.23,-9.66 29.24,-13.11 44.9,-21.41l-0.04 10.35c-0.11,8.57 -3.94,-1.28 0.04,7.74 26.42,-0.59 46.68,-8.77 72.78,-11.62 89.59,-9.77 79.88,-20.15 132.78,-29.98 64.54,-12.01 149.49,-20.64 212.25,3.6l79.37 47.21c15.32,12.08 10.15,1.86 15.24,20.94 -39.09,0 -58.71,-1.36 -90.42,6.03l25.33 1.99c124.32,-11.7 123.12,53.89 129.78,65.47 29.58,51.4 71.98,95.28 86.02,155.58 -72.45,38.34 -32.91,2.94 -54.25,48.23 -16.73,-4.47 -34.18,-21.33 -52.3,-32.11 -20.61,-12.25 -31.99,-22.55 -56.21,-28.18 11.35,48.72 26.85,46.42 48.23,78.37 -17.16,11.48 -9,7.81 -32.36,15.87l-33.95 14.28 241.15 -108.51c-33.38,-69.54 -10.49,-89.69 -84.3,-144.79 -46.07,-34.41 -65.69,-80.64 -107.01,-122.07 -57.98,-58.13 -157.21,-96.67 -242.69,-100.93 -17.13,-0.85 -37.15,0.07 -54.52,0.27l-48.01 -6.25z"/>
    <path class="fil2" d="M976.78 1914.25c6.65,-24.87 55.58,-83.93 73.34,-107.51 13.82,-18.36 24.87,-32.49 38.8,-51.64 13.36,-18.37 22.52,-40.07 38.58,-51.84 -4.83,20.73 -19.95,40.58 -32.56,57.86 -21.3,29.22 -96.39,138.55 -118.16,153.13zm-210.99 313.48l4.34 -7.71c46.19,-98.77 81.02,-140.95 165.96,-225.88 35.65,-35.65 66.85,-66.86 102.49,-102.49 54.35,-54.35 48.82,-46.93 92.57,-112.4 89.65,-134.12 133.04,-292 165.63,-449.26l41.71 -163.28c-6.99,8.05 -2.22,0.14 -9.43,14.68 -2.42,4.89 -5.05,12.41 -7.02,17.1l-49.83 106.91c-28.71,56.86 -74.06,144.66 -109.73,197.73 -62.82,93.46 -51.1,85.02 -129.57,177.88 -95.2,112.63 -204.84,231.27 -249.92,364.98 -13.56,40.22 -18.99,92.79 -21.27,134.84 -1.07,19.79 4.07,20.07 4.07,46.9z"/>
    <path class="fil2" d="M844.16 2372.43c21.13,-5.65 18.25,-4.62 32.43,-51.97 6.82,-22.8 8.69,-59.82 15.79,-74.63 -34.54,12.5 -47.48,93.38 -48.23,126.6z"/>
    <path class="fil2" d="M524.65 2257.88c-6.11,-26.21 -20.85,-44.06 -29.41,-67.03 -8.96,-23.98 -18.8,-52.47 -18.8,-83.67l-6.03 0c0,56.16 23.63,128.28 54.25,150.71z"/>
    <path class="fil2" d="M1170.27 187.27c646.32,0 1170.26,523.96 1170.26,1170.27 0,646.32 -523.94,1170.26 -1170.26,1170.26 -646.32,0 -1170.27,-523.94 -1170.27,-1170.26 0,-646.32 523.96,-1170.27 1170.27,-1170.27zm0 30.16c629.66,0 1140.1,510.46 1140.1,1140.12 0,629.66 -510.44,1140.1 -1140.1,1140.1 -629.66,0 -1140.12,-510.44 -1140.12,-1140.1 0,-629.66 510.46,-1140.12 1140.12,-1140.12z"/>
   </g>
  </g>
 </g>
</svg>