<?xml version="1.0" standalone="no"?>
<!DOCTYPE svg PUBLIC "-//W3C//DTD SVG 1.1//EN" "http://www.w3.org/Graphics/SVG/1.1/DTD/svg11.dtd">
<svg xmlns="http://www.w3.org/2000/svg" xmlns:xlink="http://www.w3.org/1999/xlink" xml:space="preserve" width="4926.759765625" height="3454.800048828125" version="1.1" style="shape-rendering:geometricPrecision; text-rendering:geometricPrecision; image-rendering:optimizeQuality; fill-rule:evenodd; clip-rule:evenodd" viewBox="0 0 4926.76 3454.8">
 <defs>
  <style type="text/css">
   <![CDATA[
    .fil2 {fill:#65442E}
    .fil0 {fill:#65442E;fill-rule:nonzero}
    .fil1 {fill:#B40808;fill-rule:nonzero}
   ]]>
  </style>
 </defs>
 <g id="Camada_x0020_1">
  <metadata id="CorelCorpID_0Corel-Layer"/>
  <g id="_2277425818960">
   <path class="fil0" d="M479.93 2185.39c-273.13,0 -479.93,202.89 -479.93,470.83 0,269.23 206.8,472.13 479.93,472.13 273.14,0 479.94,-202.9 479.94,-472.13 0,-267.93 -206.8,-470.83 -479.94,-470.83zm0 658.11c-107.95,0 -187.29,-76.74 -187.29,-187.29 0,-109.25 79.34,-187.29 187.29,-187.29 107.96,0 187.3,78.03 187.3,187.29 0,110.55 -79.34,187.29 -187.3,187.29zm951.03 267.93l317.35 0 -192.49 -339.47c80.64,-48.12 128.76,-128.76 128.76,-244.52 0,-210.7 -133.96,-326.45 -384.99,-326.45l-384.99 0 0 910.44 292.64 0 0 -280.94 81.94 0 141.77 280.94zm-223.71 -654.22l92.34 0c59.83,0 89.75,22.11 89.75,70.23 0,48.13 -29.92,68.94 -89.75,68.94l-92.34 0 0 -139.17zm1048.56 654.22l314.75 0 -304.34 -910.44 -356.38 0 -304.35 910.44 314.75 0 39.03 -140.47 257.52 0 39.02 140.47zm-240.61 -343.37l72.83 -264.03 72.84 264.03 -145.67 0zm885.97 75.43c-107.95,0 -187.29,-76.74 -187.29,-187.29 0,-109.25 79.34,-187.29 187.29,-187.29 63.74,0 117.06,26 149.58,70.23l243.22 -159.98c-85.84,-118.36 -226.3,-193.79 -392.79,-193.79 -273.13,0 -479.93,202.89 -479.93,470.83 0,240.61 165.18,427.91 395.39,464.33l-40.32 83.24 44.22 58.53c11.71,-5.2 22.12,-6.5 32.52,-6.5 15.6,0 31.22,6.5 31.22,26.01 0,18.21 -11.71,29.91 -37.72,29.91 -29.91,0 -55.93,-14.31 -70.24,-24.72l-66.33 114.46c31.21,23.41 97.55,53.33 174.29,53.33 91.04,0 183.39,-41.62 183.39,-153.48 0,-97.55 -83.24,-136.56 -154.78,-139.17l16.91 -35.12c153.48,-7.8 283.54,-81.93 364.18,-193.79l-243.22 -159.98c-32.52,44.22 -85.84,70.23 -149.58,70.23zm900.29 267.93l314.75 0 -304.34 -910.44 -356.38 0 -304.35 910.44 314.75 0 39.03 -140.47 257.52 0 39.02 140.47zm-240.61 -343.37l72.83 -264.03 72.84 264.03 -145.67 0zm149.57 -853.22c-1.3,10.41 -3.9,40.32 -36.41,40.32 -40.32,0 -72.84,-40.32 -133.96,-40.32 -101.46,0 -133.97,84.55 -144.37,182.09l162.58 28.61c1.3,-10.4 7.8,-40.31 37.71,-40.31 29.92,0 78.04,40.31 145.68,40.31 76.74,0 118.36,-58.52 131.36,-182.08l-162.58 -28.62zm736.41 270.54c-273.13,0 -479.93,202.89 -479.93,470.83 0,269.23 206.8,472.13 479.93,472.13 273.14,0 479.94,-202.9 479.94,-472.13 0,-267.93 -206.8,-470.83 -479.94,-470.83zm0 658.11c-107.95,0 -187.29,-76.74 -187.29,-187.29 0,-109.25 79.34,-187.29 187.29,-187.29 107.96,0 187.3,78.03 187.3,187.29 0,110.55 -79.34,187.29 -187.3,187.29z"/>
   <path class="fil1" d="M104.47 1994.72c-14.73,2.41 -26.56,3.38 -35.98,3.14 16.9,-79.68 249.9,-251.83 347.2,-251.83 10.62,0 19.55,2.17 26.55,6.52 20.77,22.22 29.7,51.18 29.7,84.51 0,171.67 -233.01,466.72 -262.21,598.79 -2.17,9.66 -3.14,17.87 -3.14,25.36 0,46.6 38.15,52.88 58.43,52.88 7.48,0 12.55,-0.73 12.55,-0.73 0.48,-3.14 103.09,-231.3 226.71,-382.21 32.36,-39.6 113.73,-128.45 180.37,-128.45 13.03,0 25.35,3.38 36.94,11.11 23.9,16.42 47.8,54.57 70.98,121.93 14.49,42.02 35.25,61.09 60.84,61.09 6.76,0 14,-1.45 21.49,-4.11 94.41,-32.6 305.43,-513.8 407.08,-637.17 -35.01,182.05 -114.69,401.04 -170.47,587.92 -39.11,130.87 -99.23,337.3 -99.23,428.57 0,27.29 15.69,77.99 48.29,77.99 1.45,0 2.9,-0.24 4.35,-0.24 9.9,-1.46 9.65,-12.08 -0.49,-24.15 -1.45,-1.69 -1.92,-6.52 -1.92,-13.52 0,-25.11 7,-76.3 8.45,-84.99 30.42,-177.22 97.55,-376.9 150.42,-550.5 24.39,-79.92 112.27,-344.54 112.27,-438.95 0,-12.31 -1.46,-21.74 -4.84,-27.53 -12.07,-20.76 -25.59,-31.87 -40.31,-31.87 -6.28,0 -12.56,1.93 -19.32,6.03 -113.96,66.89 -316.05,604.83 -430.01,663.5 -28.73,-81.13 -65.91,-132.8 -107.93,-161.52 -26.31,-17.87 -52.39,-25.6 -77.74,-25.6 -84.99,0 -161.28,85.95 -212.47,151.87 42.5,-87.41 75.33,-175.05 75.33,-249.66 0,-46.36 -12.79,-87.65 -43.94,-120.48 -12.08,-13.04 -27.04,-23.42 -43.7,-29.94 -11.35,-4.59 -24.14,-6.52 -38.39,-6.52 -128.45,0 -355.89,169.99 -372.55,261.73 -0.73,3.14 -0.97,6.03 -0.97,9.17 0,16.18 8.45,30.42 23.9,43.46 18.84,17.14 39.84,22.69 63.75,22.69 11.83,0 24.14,-1.21 37.42,-3.62 4.83,-0.73 6.76,-3.38 6.76,-7.25 0,-12.55 -23.66,-36.45 -41.29,-36.45 -0.96,0 -1.92,0 -2.89,0.24l0 -1.21zm1233.56 199.92c0.48,-0.24 156.22,-57.7 191.47,-119.27 4.83,-8.69 7.25,-17.63 7.25,-26.32 0,-35.25 -36.46,-68.08 -71.23,-68.08 -0.97,0 -1.92,0 -2.89,0.24 -77.51,4.11 -182.54,130.86 -182.54,224.55 0,48.04 27.77,87.16 100.69,97.06 6.03,0.73 12.31,1.21 18.59,1.21 134.49,0 333.68,-174.8 334.17,-175.29 2.16,-1.69 3.13,-4.1 3.13,-7.24 0,-14.73 -22.93,-40.08 -36.94,-40.08 -2.41,0 -4.34,0.73 -6.03,2.17 -62.29,54.57 -225.27,176.98 -324.02,176.98 -10.14,0 -19.8,-1.21 -28.49,-4.1 -10.63,-3.62 -14.73,-16.66 -14.73,-29.94 0,-14.49 4.83,-29.45 11.59,-31.87zm39.36 -78.23c30.42,-39.36 74.84,-79.43 108.17,-89.09 -8.45,33.32 -67.6,68.57 -108.17,89.09zm364.82 -132.56c-0.48,0.73 -119.51,235.9 -119.51,282.5 0,17.38 21.25,32.11 34.04,36.69 0.73,0.24 1.46,0.49 2.17,0.49 38.64,0 238.07,-249.18 309.54,-300.61 -12.31,73.16 -65.68,195.57 -65.92,196.06 -0.48,0.97 -0.73,2.41 -0.73,3.62 0,14.25 26.32,35.74 41.77,35.74 3.38,0 6.28,-0.97 8.22,-3.38 8.93,-9.66 100.2,-108.17 152.59,-127.49 1.46,24.39 -7.24,50.46 -7.24,75.33 0,15.69 3.38,30.91 14.97,44.43 12.31,14.73 30.18,25.6 49.74,29.22 3.63,0.72 7.49,1.21 11.6,1.21 68.81,0 182.77,-98.51 225.03,-130.38 2.41,-1.93 3.38,-4.59 3.38,-7.73 0,-14.49 -22.22,-40.08 -36.46,-40.08 -2.16,0 -4.1,0.73 -5.54,1.93 -50.22,36.7 -155.01,129.42 -213.44,132.8 1.69,-22.21 7.97,-46.36 7.97,-70.26 0,-18.6 -3.87,-36.94 -16.66,-54.08 -15.46,-21.01 -32.36,-29.22 -49.98,-29.22 -28.26,0 -58.19,21 -86.93,44.18 11.6,-36.22 21.25,-71.47 21.25,-97.55 0,-31.39 -24.38,-66.64 -54.32,-66.64 -4.11,0 -8.21,0.73 -12.31,2.17 -47.32,15.22 -195.09,185.19 -242.17,239.03 34.28,-75.57 77.74,-161.52 77.98,-162.01 0.73,-1.45 0.97,-2.89 0.97,-4.34 0,-14.25 -27.28,-35.98 -42.02,-35.98 -3.62,0 -6.51,1.45 -7.97,4.34zm826.48 -171.42c0.73,-7.49 -7,-9.17 -17.63,-3.86 -10.38,5.55 -19.55,15.69 -20.28,23.17 -1.45,12.08 -5.07,25.36 -11.11,34.77 -2.41,3.62 -18.11,6.28 -26.55,20.28 -5.55,8.93 -2.66,15.22 6.52,13.76 40.07,-6.27 65.19,-50.7 69.05,-88.12zm-132.07 242.42c12.79,-16.9 55.05,-26.08 73.16,-26.08 4.59,0 7.73,0.49 8.45,1.7 3.38,6.52 4.83,14.49 4.83,23.42 0,28.49 -15.21,65.67 -28.49,89.57 -29.22,-6.27 -56.5,-21.25 -64.46,-49.5 8.45,-6.76 23.66,-8.68 23.66,-17.38 0,-4.59 -4.59,-11.11 -17.14,-21.73zm-58.68 5.07c-39.36,31.87 -86.43,92.72 -86.43,147.04 0,25.35 10.38,49.01 36.69,67.6 -1.21,2.17 23.9,17.87 60.84,17.87 41.53,0 98.03,-20.04 148.98,-103.34 6.03,0.48 12.55,0.97 19.31,0.97 53.36,0 120.72,-19.07 184.47,-70.98 1.93,-1.7 2.9,-4.11 2.9,-6.76 0,-13.77 -22.94,-36.46 -37.19,-36.46 -2.65,0 -4.83,0.73 -6.51,2.17 -46.61,38.15 -102.86,57.95 -140.52,65.19 7.97,-18.59 11.83,-37.42 11.83,-55.29 0,-28.98 -10.14,-55.53 -28.98,-73.89 -18.59,-18.11 -48.53,-27.28 -77.98,-27.28 -44.67,0 -87.89,21.25 -87.89,65.19 0,2.65 0,5.31 0.48,7.97zm26.56 58.43l0 0c17.14,21.49 41.53,40.8 71.22,54.32 -28.01,38.15 -74.13,80.65 -113.48,80.65 -7.24,0 -14.24,-1.45 -21,-4.59 -0.73,-2.41 -0.73,-8.21 0,-15.93 2.89,-38.15 37.42,-86.92 63.26,-114.45zm645.63 -33.32c-67.6,66.4 -222.38,255.21 -292.15,287.33 12.79,-66.64 141.49,-248.93 126.51,-288.53 -7.97,-21.49 -23.17,-33.55 -46.6,-35.01 -14,-0.97 -48.77,15.46 -65.67,20.04 16.65,-35.01 20.52,-61.81 16.9,-79.68 -6.28,-30.42 -42.99,-62.05 -75.33,-53.12 -53.37,14.73 -96.58,119.75 -27.53,166.84 38.88,26.8 88.13,20.53 134.49,6.52 -30.42,60.37 -137.63,224.79 -103.1,276.7 8.93,13.28 23.66,24.87 38.39,29.94 69.3,23.66 272.11,-231.31 331.99,-290.22 13.04,-13.04 -24.63,-53.84 -37.9,-40.81zm-351.06 -9.89c-4.84,-4.35 10.38,-45.16 11.59,-47.81 8.45,-18.84 18.35,-32.11 28.25,-40.08 -3.38,20.77 -15.22,50.22 -39.83,87.9zm397.66 -92.48c-23.42,47.81 -69.54,149.22 -69.54,221.65 0,19.8 3.38,37.43 11.59,51.19 11.35,18.6 31.39,34.28 53.6,40.08 6.28,1.69 12.55,2.65 19.07,2.65 80.4,0 186.64,-120.48 229.61,-173.36 1.45,-1.93 2.17,-4.59 2.17,-7.49 0,-15.69 -19.8,-41.53 -31.87,-41.53 -2.17,0 -4.11,0.97 -5.79,2.9 -38.15,47.32 -158.39,176.01 -224.79,176.01 -0.49,0 -1.21,0 -1.7,0 -1.93,-5.79 -2.65,-13.03 -2.65,-20.76 0,-61.57 49.26,-173.6 68.57,-215.62 0.48,-1.21 0.97,-2.65 0.97,-4.1 0,-14.49 -26.8,-36.23 -41.29,-36.23 -3.62,0 -6.52,1.46 -7.97,4.59zm77.98 -31.63l59.16 -94.16c0.97,-1.46 1.45,-3.14 1.45,-4.84 0,-14 -27.04,-35.98 -42.01,-35.98 -3.38,0 -6.28,1.21 -7.97,3.87l-58.68 94.16c-0.96,1.46 -1.45,3.14 -1.45,4.84 0,14 26.8,35.98 41.53,35.98 3.62,0 6.28,-1.21 7.97,-3.87zm327.16 95.37c4.59,-11.35 1.93,-22.69 -6.76,-33.07 -13.04,-15.94 -29.94,-23.66 -48.78,-23.66 -6.76,0 -14,1.21 -21.24,3.13 -60.37,17.15 -150.19,82.82 -150.19,155.5 0,7.73 1.21,15.69 3.14,23.41 8.93,32.36 38.39,58.92 69.29,62.54 1.93,0.24 4.11,0.49 6.04,0.49 44.66,0 110.58,-53.6 155.97,-96.34 7.25,46.36 34.05,75.57 77.51,86.19 7.01,1.7 14.25,2.42 21.74,2.42 69.29,0 161.28,-65.92 222.62,-104.31 2.65,-1.45 3.86,-3.87 3.86,-7 0,-13.28 -23.66,-36.23 -38.88,-36.23 -2.16,0 -4.34,0.49 -6.03,1.46 -20.76,13.03 -162.49,103.09 -211.51,103.09 -8.45,0 -14.25,-2.65 -16.17,-8.93 -2.9,-10.14 -4.59,-22.93 -4.59,-38.87 0,-14.97 1.45,-32.6 4.34,-53.37 0.73,-0.72 0.97,-1.69 0.97,-2.89 0,-10.63 -20.52,-37.67 -37.9,-37.67 -4.35,0 -8.46,1.7 -11.84,5.55 -0.48,0.49 -123.62,137.39 -185.91,142.94 -1.45,-5.3 -1.93,-10.62 -1.93,-15.93 0,-60.36 79.44,-121.45 138.84,-138.59 8.92,8.69 32.59,21.25 37.42,10.14zm1196.37 -428.57c9.41,12.08 13.76,28.74 13.76,47.32 0,59.64 -38.87,140.28 -72.92,167.56 -1.92,1.7 -2.65,3.87 -2.65,6.28 0,13.27 26.07,36.22 41.29,36.22 2.65,0 4.83,-0.73 6.76,-2.17 0,-0.24 69.53,-55.53 155.49,-72.68 4.59,-0.97 6.52,-3.62 6.52,-7.24 0,-12.55 -23.91,-36.7 -41.29,-36.7 -1.21,0 -2.41,0.24 -3.38,0.49 -19.55,3.86 -38.15,9.65 -55.29,16.17 10.14,-30.18 14.73,-56.98 14.73,-80.4 0,-90.31 -68.57,-130.38 -142.22,-130.38 -89.33,0 -186.64,57.7 -186.64,157.17 0,51.92 26.32,114.94 94.41,187.13 -178.91,45.39 -274.28,136.65 -313.39,230.82 -13.28,32.36 -20.04,70.26 -20.04,108.89 0,115.17 58.91,235.9 176.26,235.9 94.16,0 332.23,-161.53 332.23,-276.22 0,-9.17 -1.69,-18.11 -4.83,-26.56 -4.84,-12.55 -11.84,-23.9 -21.74,-33.8 46.12,-14.24 110.35,-31.39 157.91,-31.39 10.87,0 21.01,0.73 29.69,2.9 8.93,2.17 28.01,7.49 39.12,7.49 4.83,0 7.97,-0.97 7.97,-3.87 0,-4.1 -6.27,-11.59 -23.42,-24.38 -22.69,-17.15 -54.08,-24.15 -90.54,-24.15 -121.69,0 -297.71,77.98 -371.83,113.24 -2.89,1.45 -4.35,3.86 -4.35,6.76 0,13.03 25.12,36.45 41.29,36.45 1.93,0 3.86,-0.24 5.55,-0.97 21.25,-10.14 141,-68.08 174.33,-68.08 4.59,0 7.49,0.97 8.45,3.38 2.17,5.55 3.14,11.59 3.14,18.11 0,93.92 -228.89,257.62 -315.33,257.62 -69.05,0 -93.2,-79.44 -93.2,-156.22 0,-42.01 7.24,-83.3 18.35,-110.1 39.61,-93.68 136.42,-184.23 320.89,-226.71 11.83,-2.17 7,-16.9 -5.55,-28.98 -70.03,-67.13 -96.1,-123.62 -96.1,-169.26 0,-94.65 111.07,-143.18 175.78,-143.18 19.07,0 34.28,4.35 40.8,13.52z"/>
   <g>
    <path class="fil2" d="M2138.24 1213.31c2.13,-25.7 49.78,-106.74 65.82,-118.5 -3.5,15.02 -9.28,19.15 -16.13,32.13 -5.86,11.09 -9.06,19.68 -14.65,29.25 -11.38,19.47 -24.43,49.35 -35.04,57.12zm355.47 105.32c-14.62,3.9 -10.38,4.77 -22.02,13.09 -20.39,14.59 -44.37,34.58 -65.76,39.57 14.8,-22.1 69.14,-38.72 138.7,-142.17 34.05,-50.63 58.79,-134.98 58.79,-217.69l4.39 0c0,107.07 -18.97,186.17 -79.61,262.69 -17.21,21.7 -30.74,30.43 -34.49,44.51zm-355.47 114.1c0,-75.19 30,-136.52 70.16,-188.76 12.58,-16.35 24.56,-28.98 38.24,-45.15 52.7,-62.29 105,-122.34 154.28,-188.02 88.44,-117.9 83.18,-128.64 145.71,-240.49 25.33,-45.32 58.02,-128.32 75.45,-179.07 4.84,-14.07 3.83,-17.96 12.07,-27.44l-37.94 150.77c-42.06,144.81 -64.71,319.94 -119.95,433 -94.23,192.86 -231.39,219.77 -289.24,355.88 -5.28,12.42 -9.25,23.27 -13.09,35.18 -1.8,5.59 -3.32,11.51 -5.45,16.49 -3.75,8.76 -2.49,6.99 -8.29,13.66 -12.03,-51.6 -21.94,-70.76 -21.94,-136.05zm482.74 -649.51c1.99,-22.88 -15.77,0.06 42.08,-23.74 18.2,-7.49 34.42,-14.4 51.56,-23.04 91.35,-46.1 200.38,-124.38 200.38,-238.47l4.4 0c0,121.59 -81.16,173.82 -173.75,230l-124.67 55.25zm-127.27 535.41c39.12,-18.78 121.52,-1.74 161.83,13.71 14.22,5.44 24,13.27 40.03,17 -35.63,-53.21 -48.98,-82.42 -92.15,-83.38 0,-54.25 14.96,-141.74 47.52,-158.96 27.67,-14.63 117.19,36.33 162.59,31.54 49.86,-5.26 43.71,-55.3 75.04,-78.93 33.71,-25.44 10.94,-21.84 27.61,-47 21.48,-32.44 15.87,-3.81 20.81,-53.78 2.37,-23.99 27.69,-34.24 35.06,-65.88 -33.24,-49.66 -85.17,-30.36 -38.99,-188.2 22.49,-76.85 16.07,-68.65 34.6,-61.95 15.57,-66.83 -5.12,-138.02 -42.95,-194.03 -110.12,-163.06 -348.12,-233.2 -545.68,-162 -211.16,76.1 -278.8,267.36 -288.99,474.61 -3.78,76.65 -15.69,151.95 -22.03,228.12 7.14,-8.22 5.28,-5.3 8.99,-17.33 19.2,-62.21 39.89,-287.45 56.84,-311.81l13.16 144.82c6.87,-29.5 47.58,-130.53 60.88,-167.33l15.56 -41.48c5.25,-11 2.96,-6.05 6.93,-10.62 -2.74,33.01 -29.9,103.96 -39.47,140.45 -38.15,145.52 -86.16,254.7 -149.24,386.17 12.18,-4.41 6.15,-1 16.53,-14.19l171.55 -223.41c46.49,-61.54 86.4,-127.93 126.03,-194.33 12.44,-20.84 21.07,-50.08 36.96,-68.37 -3.86,46.33 -94.92,224.44 -119.33,262.48 -37.37,58.19 -81.26,107.96 -125.13,160.13l-127.25 153.62c-56.92,93.92 -53.52,189.35 13.01,282.78 15.27,21.45 25.03,17.91 31.59,43.02 4.2,16.03 3.75,31.92 15.74,45.7 0.59,0.69 1.52,1.59 2.14,2.24 8.37,8.74 15.24,16.41 28.36,19.91 -13.79,-20.59 -21.95,-31.23 -21.95,-65.83 15.6,4.17 10.36,2.63 19.79,15.33 7.88,10.59 6.21,7.41 11.63,19.09 5.78,12.5 10.62,31.29 17.4,44.04 14.03,26.41 54.24,36 78.45,48.81 -0.64,-28.47 -10.66,-14.35 -35.11,-30.72 4.4,-52.92 30.35,-96.68 62.65,-134.84 9.36,-11.06 15.75,-12.85 26.17,-22.1 18.25,-16.18 31.59,-29.95 54.02,-42.52 12.54,-7.03 21.28,-9.54 32.7,-15.58l-0.04 7.53c-0.08,6.24 -2.86,-0.93 0.04,5.63 19.22,-0.43 33.98,-6.38 52.98,-8.46 65.22,-7.12 58.14,-14.68 96.66,-21.83 46.98,-8.74 108.81,-15.03 154.51,2.61l57.78 34.37c11.16,8.8 7.39,1.36 11.09,15.25 -28.45,0 -42.74,-0.99 -65.83,4.39l18.44 1.46c90.51,-8.52 89.63,39.23 94.49,47.66 21.54,37.41 52.4,69.36 62.63,113.25 -52.75,27.92 -23.96,2.14 -39.51,35.12 -12.17,-3.26 -24.88,-15.53 -38.07,-23.37 -15.01,-8.92 -23.29,-16.41 -40.92,-20.52 8.27,35.47 19.54,33.8 35.11,57.05 -12.48,8.36 -6.55,5.68 -23.55,11.56l-24.72 10.39 175.54 -79c-24.29,-50.62 -7.64,-65.28 -61.36,-105.39 -33.54,-25.05 -47.83,-58.71 -77.9,-88.86 -42.2,-42.32 -114.45,-70.38 -176.68,-73.48 -12.46,-0.62 -27.04,0.06 -39.69,0.2l-34.95 -4.55z"/>
    <path class="fil2" d="M2322.55 1257.19c4.84,-18.12 40.46,-61.11 53.39,-78.27 10.06,-13.36 18.1,-23.65 28.24,-37.59 9.73,-13.37 16.4,-29.18 28.09,-37.73 -3.51,15.09 -14.52,29.53 -23.7,42.12 -15.52,21.27 -70.17,100.86 -86.01,111.48zm-153.6 228.2l3.15 -5.61c33.63,-71.89 58.99,-102.6 120.82,-164.43 25.94,-25.94 48.67,-48.67 74.6,-74.61 39.58,-39.57 35.54,-34.16 67.39,-81.81 65.26,-97.65 96.85,-212.57 120.58,-327.05l30.35 -118.86c-5.09,5.86 -1.62,0.11 -6.87,10.69 -1.75,3.55 -3.67,9.03 -5.11,12.44l-36.27 77.82c-20.9,41.38 -53.91,105.31 -79.88,143.94 -45.74,68.03 -37.19,61.88 -94.33,129.48 -69.3,81.99 -149.11,168.36 -181.93,265.7 -9.87,29.28 -13.82,67.54 -15.48,98.16 -0.79,14.41 2.96,14.62 2.96,34.14z"/>
    <path class="fil2" d="M2226 1590.71c15.38,-4.1 13.28,-3.36 23.61,-37.83 4.97,-16.6 6.32,-43.54 11.5,-54.32 -25.14,9.1 -34.57,67.97 -35.11,92.15z"/>
    <path class="fil2" d="M1993.41 1507.33c-4.45,-19.08 -15.19,-32.08 -21.42,-48.8 -6.51,-17.46 -13.68,-38.21 -13.68,-60.91l-4.4 0c0,40.87 17.21,93.38 39.5,109.71z"/>
    <path class="fil2" d="M2463.41 0c470.5,0 851.91,381.42 851.91,851.91 0,470.5 -381.42,851.92 -851.91,851.92 -470.51,0 -851.92,-381.43 -851.92,-851.92 0,-470.5 381.42,-851.91 851.92,-851.91zm0 21.95c458.37,0 829.97,371.59 829.97,829.97 0,458.37 -371.59,829.97 -829.97,829.97 -458.38,0 -829.97,-371.59 -829.97,-829.97 0,-458.37 371.58,-829.97 829.97,-829.97z"/>
   </g>
  </g>
 </g>
</svg>